<svg width="754" height="500" viewBox="0 0 754 500" fill="none" xmlns="http://www.w3.org/2000/svg">
<g clip-path="url(#clip0_326_156)">
<path d="M381.963 140.53C375.249 129.426 367.294 117.57 354.834 113.944C340.405 109.745 325.583 118.086 313.011 126.318C275.412 150.935 239.203 177.613 204.551 206.23L204.589 206.661C231.567 204.8 258.545 202.94 285.523 201.079C305.015 199.735 325.176 198.205 342.401 188.985C348.938 185.486 355.309 180.812 362.716 180.486C371.919 180.082 379.942 186.508 386.248 193.223C423.548 232.942 434.341 293.682 476.188 328.578C449.801 263.503 418.294 200.623 381.963 140.53Z" fill="#F2F2F2"/>
<path d="M611.239 477.42C607.114 472.212 605.429 470.992 601.36 465.736C568.232 422.888 537.093 378.594 507.945 332.852C488.147 301.786 469.33 270.123 451.495 237.864C443.004 222.528 434.746 207.071 426.721 191.494C420.493 179.415 414.405 167.265 408.455 155.043C406.754 151.551 405.1 148.044 403.455 144.529C399.579 136.263 395.775 127.957 391.69 119.803C387.036 110.51 381.37 100.767 372.822 94.5234C368.933 91.5653 364.281 89.7755 359.412 89.3632C352.454 88.9137 346.034 91.7868 339.999 94.9247C295.843 117.949 254.505 146.817 217.115 179.664C179.629 212.586 146.123 249.779 117.279 290.486C116.397 291.746 114.31 290.542 115.201 289.274C118.708 284.315 122.285 279.409 125.931 274.556C171.268 214.258 226.859 162.406 290.161 121.368C300.811 114.466 311.662 107.888 322.712 101.634C328.282 98.4799 333.876 95.3661 339.565 92.4449C345.143 89.5798 351.066 87.0037 357.438 86.9074C379.122 86.5703 390.35 111.128 398.062 127.652C400.486 132.852 402.939 138.037 405.421 143.205C414.803 162.827 424.546 182.27 434.65 201.533C440.885 213.427 447.258 225.251 453.766 237.005C474.022 273.609 495.551 309.471 518.354 344.593C548.562 391.116 578.528 432.214 612.941 475.719C613.888 476.923 612.195 478.64 611.239 477.42Z" fill="#E4E4E4"/>
<path d="M214.973 167.538C213.713 166.134 212.461 164.729 211.193 163.325C201.193 152.266 190.463 141.335 176.732 134.995C170.185 131.877 163.037 130.22 155.786 130.14C148.29 130.164 140.963 132.13 134.037 134.883C130.763 136.191 127.561 137.676 124.407 139.257C120.803 141.07 117.264 143.005 113.741 144.955C107.128 148.614 100.601 152.434 94.1594 156.415C81.3427 164.336 68.9275 172.861 56.9136 181.992C50.6858 186.727 44.5864 191.617 38.6156 196.662C33.0622 201.349 27.621 206.161 22.2922 211.1C21.1527 212.151 19.4512 210.449 20.5907 209.398C21.9952 208.09 23.4157 206.79 24.8362 205.506C28.8489 201.878 32.9258 198.321 37.067 194.832C44.6186 188.46 52.3657 182.334 60.3083 176.454C72.6595 167.305 85.4358 158.777 98.6372 150.869C105.234 146.921 111.922 143.138 118.701 139.522C120.747 138.43 122.818 137.363 124.912 136.351C129.665 133.954 134.603 131.944 139.679 130.341C146.869 128.015 154.476 127.267 161.981 128.15C169.228 129.204 176.21 131.619 182.558 135.268C196.041 142.804 206.498 154.457 216.674 165.829C217.701 166.984 216.008 168.694 214.973 167.538Z" fill="#E4E4E4"/>
<path d="M491.223 282.138L523.531 270.321L539.572 264.454C544.796 262.544 550.007 260.368 555.408 259C560.101 257.659 565.084 257.723 569.742 259.183C573.895 260.72 577.698 263.077 580.922 266.113C584.216 269.147 587.281 272.42 590.092 275.906C593.584 280.103 597.025 284.344 600.481 288.571C614.746 306.016 628.917 323.537 642.995 341.133C657.073 358.729 671.056 376.4 684.945 394.146C698.869 411.934 712.696 429.798 726.428 447.736C728.11 449.933 729.791 452.132 731.47 454.331C732.398 455.546 734.49 454.348 733.549 453.116C719.716 434.998 705.786 416.954 691.76 398.984C677.7 380.971 663.542 363.035 649.288 345.175C635.033 327.316 620.682 309.533 606.235 291.829C602.636 287.418 599.031 283.012 595.42 278.611C592.374 274.898 589.362 271.146 586.021 267.691C579.888 261.348 572.226 255.743 563.055 255.591C557.662 255.501 552.444 257.212 547.434 259.025C542.032 260.979 536.644 262.969 531.25 264.942L498.717 276.841L490.583 279.816C489.14 280.344 489.763 282.672 491.223 282.138Z" fill="#E4E4E4"/>
<path d="M172.48 148.911C156.063 140.473 135.037 142.125 119.95 152.667C148.727 157.632 177.19 164.275 205.191 172.562C193.563 165.748 184.467 155.071 172.48 148.911Z" fill="#F2F2F2"/>
<path d="M119.789 152.638L116.628 155.207C117.697 154.308 118.808 153.465 119.95 152.667C119.896 152.658 119.843 152.648 119.789 152.638Z" fill="#F2F2F2"/>
<path d="M579.705 282.256C576.525 278.385 573.087 274.331 568.33 272.759L563.889 272.934C597.696 332.672 643.355 384.872 698.063 426.327C658.611 378.304 619.158 330.28 579.705 282.256Z" fill="#F2F2F2"/>
<path d="M303.538 250.321C305.593 257.788 310.223 264.287 316.609 268.669C319.078 270.35 321.999 271.962 322.843 274.827C323.288 276.653 323.014 278.58 322.078 280.211C321.145 281.82 320.009 283.303 318.698 284.624L318.578 285.072C312.452 281.442 306.623 276.849 303.239 270.583C299.855 264.317 299.382 256.104 303.538 250.321Z" fill="#F2F2F2"/>
<path d="M507.512 428.033C509.567 435.5 514.198 441.999 520.583 446.381C523.052 448.062 525.973 449.674 526.818 452.539C527.262 454.366 526.988 456.293 526.053 457.923C525.119 459.533 523.983 461.016 522.673 462.336L522.553 462.785C516.426 459.154 510.598 454.561 507.214 448.295C503.829 442.029 503.357 433.817 507.512 428.033Z" fill="#F2F2F2"/>
<path d="M100.438 415.777C102.493 423.244 107.123 429.743 113.509 434.125C115.978 435.806 118.899 437.418 119.744 440.283C120.188 442.11 119.914 444.037 118.979 445.667C118.045 447.277 116.909 448.76 115.599 450.08L115.479 450.529C109.352 446.898 103.524 442.305 100.139 436.039C96.7551 429.773 96.2826 421.561 100.438 415.777Z" fill="#F2F2F2"/>
<path d="M568.879 89.2938C593.537 89.2938 613.526 69.3047 613.526 44.6469C613.526 19.9891 593.537 0 568.879 0C544.222 0 524.232 19.9891 524.232 44.6469C524.232 69.3047 544.222 89.2938 568.879 89.2938Z" fill="#0171AF"/>
<path d="M649.45 10.3917C627.812 7.46692 603.109 19.1623 597.501 40.2644C596.088 36.5125 593.518 33.307 590.164 31.111C586.809 28.915 582.843 27.8422 578.839 28.0477C574.835 28.2532 571 29.7262 567.888 32.254C564.776 34.7818 562.548 38.2335 561.526 42.1105L564.004 43.8847C610.373 53.9121 658.372 53.6951 704.649 43.2488C689.598 27.4307 671.088 13.3164 649.45 10.3917Z" fill="#F0F0F0"/>
<path d="M556.654 69.9209C535.016 66.9962 510.313 78.6916 504.705 99.7937C503.292 96.0417 500.722 92.8362 497.368 90.6402C494.013 88.4442 490.048 87.3715 486.043 87.5769C482.039 87.7824 478.204 89.2554 475.092 91.7833C471.98 94.3111 469.752 97.7628 468.73 101.64L471.208 103.414C517.577 113.441 565.576 113.224 611.853 102.778C596.802 86.9599 578.292 72.8456 556.654 69.9209Z" fill="#F0F0F0"/>
<path d="M745.509 81.1771C745.419 81.1772 745.33 81.1634 745.245 81.136C513.775 7.93419 309.767 17.5066 179.384 38.4272C161.641 41.2732 143.85 44.5603 126.505 48.198C122.077 49.1255 117.483 50.1198 112.851 51.1551C107.32 52.387 101.861 53.6557 96.6276 54.9244C94.3673 55.4596 92.1511 55.9991 89.979 56.5428C86.6889 57.3549 83.3504 58.2013 79.7718 59.1314C75.7729 60.1624 71.7099 61.2439 67.6931 62.3459C67.6784 62.3511 67.6635 62.3553 67.6483 62.3587L67.6487 62.3596C63.1117 63.5983 58.5986 64.873 54.2343 66.146C51.8721 66.8282 49.5912 67.501 47.4065 68.1653C47.1624 68.2328 46.9461 68.2978 46.7269 68.3645L46.2575 68.5072C45.9856 68.5902 45.7172 68.6714 45.4488 68.7483L45.4317 68.7535L45.4321 68.7543L44.7216 68.9749C43.8744 69.2315 43.0477 69.4819 42.2347 69.7315C20.7474 76.3554 8.93504 81.0677 8.81834 81.1138C8.71163 81.1566 8.59755 81.1779 8.48259 81.1766C8.36763 81.1753 8.25406 81.1514 8.14836 81.1061C8.04266 81.0609 7.94689 80.9954 7.86653 80.9132C7.78618 80.8309 7.7228 80.7337 7.68003 80.627C7.63725 80.5203 7.61593 80.4062 7.61725 80.2912C7.61856 80.1762 7.64251 80.0627 7.68772 79.957C7.73293 79.8513 7.79851 79.7555 7.88073 79.6752C7.96295 79.5948 8.06019 79.5314 8.1669 79.4887C8.28445 79.4425 20.1545 74.7063 41.7201 68.0576C42.5361 67.8071 43.3649 67.5567 44.2147 67.2993L44.8747 67.0941C44.8973 67.0856 44.92 67.0788 44.9431 67.0719C45.2102 66.9958 45.477 66.9146 45.748 66.8325L46.2182 66.6898C46.4524 66.6188 46.6832 66.5487 46.9196 66.4837C49.0894 65.8237 51.378 65.1492 53.7461 64.4644C58.1121 63.1906 62.6295 61.916 67.1699 60.6755C67.184 60.6703 67.1986 60.6669 67.2127 60.6626C71.2436 59.5572 75.3215 58.4706 79.3332 57.4362C82.9174 56.5052 86.2622 55.6571 89.558 54.8432C91.7393 54.3004 93.9598 53.7598 96.2194 53.2215C101.459 51.9511 106.928 50.6807 112.47 49.4462C117.109 48.41 121.711 47.4132 126.146 46.4848C143.517 42.8411 161.336 39.5489 179.107 36.6986C309.676 15.7481 513.977 6.16023 745.772 79.4672C745.971 79.5301 746.142 79.6623 746.252 79.8398C746.362 80.0173 746.406 80.2285 746.374 80.435C746.342 80.6416 746.237 80.83 746.079 80.9661C745.92 81.1022 745.718 81.177 745.509 81.1771Z" fill="#CCCCCC"/>
<path d="M230.736 367.54C230.433 366.654 229.923 365.853 229.248 365.203C228.999 364.972 228.729 364.764 228.442 364.582C226.157 363.058 222.743 362.717 220.572 364.582C220.354 364.771 220.151 364.979 219.968 365.203C219.32 366 218.655 366.779 217.972 367.54C216.852 368.819 215.705 370.053 214.505 371.252C214.164 371.585 213.823 371.926 213.472 372.259C213.271 372.46 213.07 372.653 212.868 372.846C212.098 373.581 211.31 374.29 210.513 374.99C210.093 375.367 209.673 375.735 209.244 376.093C208.605 376.627 207.966 377.161 207.318 377.678C207.257 377.722 207.196 377.765 207.134 377.818C207.117 377.827 207.108 377.844 207.091 377.853C207.082 377.853 207.073 377.853 207.064 377.871C207.041 377.88 207.02 377.895 207.003 377.914C206.81 378.046 206.679 378.133 206.583 378.212C206.618 378.194 206.653 378.168 206.688 378.151C206.53 378.273 206.364 378.396 206.206 378.518C204.674 379.648 203.107 380.733 201.505 381.749C197.542 384.285 193.378 386.496 189.057 388.358C188.768 388.472 188.47 388.595 188.173 388.708C176.857 393.344 164.583 395.153 152.411 393.978C151.168 393.882 149.925 393.751 148.682 393.584C147.246 393.374 145.819 393.121 144.401 392.832C139.002 391.754 133.719 390.16 128.626 388.069C122.255 385.152 116.195 381.597 110.539 377.459C109.664 376.838 108.78 376.216 107.896 375.612C108.902 373.143 109.892 370.674 110.855 368.188C111.336 366.989 111.8 365.79 112.255 364.582C115.836 355.276 119.197 345.882 122.419 336.454C125.676 326.903 128.748 317.297 131.637 307.635C131.935 306.654 132.224 305.674 132.504 304.693C134.018 299.59 135.472 294.474 136.864 289.347C136.995 288.848 137.135 288.358 137.258 287.859C137.66 286.388 138.054 284.917 138.439 283.447C139.315 280.129 137.336 276.163 133.852 275.366C132.175 274.936 130.396 275.174 128.89 276.03C127.384 276.886 126.27 278.292 125.781 279.954C125.404 281.372 125.028 282.781 124.643 284.2C122.795 291.054 120.852 297.885 118.812 304.693C118.515 305.674 118.217 306.654 117.919 307.635C113.42 322.465 108.479 337.146 103.098 351.678C102.45 353.437 101.794 355.191 101.129 356.939C100.805 357.797 100.481 358.655 100.148 359.513C99.509 361.202 98.8524 362.892 98.1959 364.582C97.8194 365.571 97.4342 366.56 97.049 367.54C96.7952 368.162 96.55 368.784 96.3049 369.396C93.8089 368.5 91.2229 367.878 88.5924 367.54L88.1722 367.488C86.1328 367.243 84.0703 367.26 82.0354 367.54C78.9898 367.896 76.0595 368.916 73.4516 370.528C70.8436 372.141 68.6218 374.307 66.943 376.873C62.7672 383.447 62.8197 392.849 68.6764 398.434C74.7081 404.186 83.8388 404.142 90.9385 400.544C94.7009 398.509 97.8734 395.535 100.148 391.912C101.02 390.599 101.82 389.24 102.547 387.842C102.731 387.964 102.914 388.087 103.098 388.218C103.799 388.708 104.499 389.207 105.191 389.698C109.22 392.617 113.467 395.225 117.893 397.498C127.411 402.229 137.656 405.328 148.2 406.663C148.437 406.69 148.664 406.725 148.901 406.751C150.065 406.9 151.238 407.014 152.411 407.11C169.239 408.378 186.087 404.934 201.068 397.165C202.337 396.508 203.595 395.82 204.841 395.099C206.775 393.978 208.666 392.788 210.513 391.527C211.52 390.844 212.501 390.153 213.472 389.426C217.719 386.299 221.677 382.798 225.3 378.965C226.674 377.52 227.99 376.029 229.248 374.491C230.437 373.233 231.123 371.582 231.174 369.852C231.167 369.061 231.019 368.279 230.736 367.54ZM85.7735 388.393C85.9574 388.262 86.1412 388.122 86.3163 387.982C86.2638 388.113 86.0098 388.262 85.7735 388.393ZM88.5836 385.566C88.3823 385.793 88.1984 386.021 87.9971 386.248C87.3845 386.934 86.7265 387.577 86.0274 388.174C85.9311 388.262 85.826 388.349 85.721 388.428C85.7198 388.428 85.7187 388.428 85.7176 388.429C85.7165 388.429 85.7156 388.43 85.7147 388.431C85.7139 388.432 85.7133 388.433 85.7128 388.434C85.7124 388.435 85.7122 388.436 85.7122 388.437C85.5858 388.493 85.463 388.558 85.3445 388.63C84.9681 388.857 84.5829 389.067 84.189 389.26C83.4177 389.544 82.6242 389.763 81.8166 389.916C81.196 389.962 80.5732 389.968 79.9519 389.934H79.9344C79.5056 389.839 79.082 389.722 78.665 389.584C78.4549 389.479 78.2536 389.356 78.0522 389.234C77.9734 389.164 77.9033 389.094 77.8596 389.05C77.7741 388.972 77.6951 388.887 77.6233 388.796C77.6233 388.795 77.6231 388.794 77.6227 388.792C77.6222 388.791 77.6216 388.79 77.6208 388.79C77.62 388.789 77.619 388.788 77.6179 388.788C77.6168 388.787 77.6157 388.787 77.6146 388.787C77.5182 388.612 77.4132 388.437 77.3169 388.262C77.3119 388.257 77.3088 388.251 77.3081 388.244C77.2381 388.026 77.1768 387.798 77.1243 387.57C77.1053 387.171 77.1082 386.77 77.133 386.371C77.2505 385.812 77.4085 385.262 77.6058 384.725C77.783 384.345 77.9848 383.976 78.2098 383.622C78.2273 383.587 78.3149 383.447 78.4112 383.289C78.42 383.281 78.4199 383.281 78.4199 383.272C78.5512 383.123 78.6826 382.966 78.8227 382.825C79.059 382.563 79.3129 382.335 79.5668 382.099C80.0605 381.776 80.572 381.481 81.0988 381.215C81.9345 380.918 82.7921 380.687 83.6638 380.523C84.9492 380.421 86.2411 380.433 87.5244 380.558C88.74 380.769 89.9393 381.064 91.1137 381.442C90.4019 382.824 89.5915 384.152 88.6887 385.417C88.6537 385.469 88.6187 385.522 88.5836 385.566ZM78.8489 382.685C78.7717 382.809 78.6807 382.924 78.5775 383.027C78.6469 382.898 78.7388 382.782 78.8489 382.685Z" fill="#3F3D56"/>
<path d="M204.421 278.133C204.342 280.882 204.263 283.631 204.185 286.379C204.018 292.481 203.846 298.586 203.668 304.693C203.484 311.565 203.292 318.435 203.09 325.301C202.994 328.847 202.895 332.392 202.793 335.937C202.521 345.488 202.253 355.036 201.987 364.582C201.961 365.571 201.926 366.551 201.9 367.54C201.768 372.277 201.637 377.013 201.506 381.749C201.357 386.887 201.211 392.026 201.068 397.165C200.963 401.017 200.855 404.872 200.744 408.729C199.956 436.682 199.168 464.634 198.38 492.587C198.347 494.318 197.645 495.969 196.421 497.193C195.196 498.417 193.546 499.119 191.815 499.153C190.078 499.139 188.416 498.442 187.188 497.214C185.959 495.986 185.263 494.324 185.249 492.587C185.687 476.864 186.13 461.141 186.58 445.419C186.974 431.202 187.373 416.985 187.779 402.768C187.91 398.084 188.042 393.398 188.173 388.708C188.374 381.652 188.573 374.596 188.768 367.54C188.795 366.551 188.83 365.571 188.856 364.582C188.873 363.715 188.9 362.857 188.926 361.99C189.311 348.29 189.696 334.586 190.081 320.88C190.239 315.487 190.391 310.092 190.537 304.693C190.712 298.539 190.887 292.388 191.062 286.239C191.141 283.534 191.211 280.838 191.289 278.133C191.323 276.402 192.025 274.751 193.249 273.527C194.474 272.303 196.124 271.6 197.855 271.567C199.592 271.581 201.254 272.277 202.482 273.506C203.711 274.734 204.407 276.396 204.421 278.133Z" fill="#3F3D56"/>
<path d="M564.597 279.955C557.712 306.025 549.483 331.721 539.944 356.941C537.311 363.898 534.618 370.84 531.74 377.699L532.401 376.131C531.117 379.398 529.476 382.513 527.508 385.421C527.374 385.608 527.238 385.794 527.099 385.978C527.78 385.108 527.909 384.936 527.487 385.462C527.265 385.725 527.045 385.989 526.815 386.246C526.202 386.932 525.545 387.576 524.846 388.175C524.67 388.325 524.492 388.472 524.311 388.616L525.132 387.978C525.036 388.203 524.368 388.501 524.159 388.629C523.485 389.036 522.781 389.392 522.054 389.695L523.623 389.033C522.431 389.513 521.188 389.854 519.918 390.049L521.664 389.815C520.416 389.987 519.152 390.001 517.901 389.855L519.647 390.09C518.623 389.949 517.622 389.679 516.666 389.287L518.234 389.949C517.725 389.727 517.233 389.464 516.765 389.164C516.527 389.009 515.797 388.457 516.752 389.186C517.744 389.944 516.879 389.251 516.675 389.049C516.505 388.882 516.351 388.699 516.185 388.529C515.413 387.737 517.057 389.891 516.533 388.965C516.252 388.501 515.995 388.023 515.764 387.532L516.426 389.101C516.124 388.354 515.91 387.575 515.788 386.78L516.023 388.525C515.897 387.535 515.897 386.534 516.02 385.544L515.785 387.29C515.946 386.185 516.238 385.103 516.656 384.068L515.995 385.636C516.286 384.94 516.631 384.267 517.026 383.624C517.208 383.292 517.421 382.978 517.663 382.686C517.706 382.7 516.553 384.011 517.165 383.349C517.325 383.176 517.475 382.994 517.637 382.822C517.896 382.547 518.174 382.296 518.447 382.036C519.362 381.165 517.167 382.882 518.223 382.193C518.987 381.69 519.792 381.251 520.629 380.88L519.061 381.542C520.463 380.966 521.932 380.572 523.434 380.369L521.689 380.604C523.569 380.387 525.469 380.41 527.344 380.671L525.599 380.436C527.973 380.796 530.294 381.449 532.508 382.379L530.939 381.718C535.657 383.743 539.836 386.751 544.008 389.7C548.037 392.617 552.282 395.224 556.707 397.497C566.225 402.229 576.471 405.329 587.016 406.666C602.14 408.518 617.486 406.543 631.648 400.922C645.809 395.3 658.333 386.212 668.068 374.492C669.256 373.232 669.94 371.58 669.991 369.849C669.979 368.11 669.289 366.445 668.068 365.207C665.659 362.995 661.109 362.371 658.783 365.207C656.578 367.898 654.208 370.45 651.686 372.846C650.509 373.964 649.3 375.046 648.06 376.094C647.351 376.693 646.633 377.28 645.906 377.855C645.561 378.127 644.489 378.851 646.136 377.682C645.758 377.95 645.396 378.243 645.024 378.518C639.51 382.582 633.536 385.981 627.224 388.642L628.793 387.98C622.02 390.821 614.907 392.77 607.632 393.778L609.378 393.543C601.894 394.528 594.313 394.516 586.832 393.51L588.578 393.744C581.099 392.717 573.784 390.725 566.817 387.817L568.386 388.479C561.662 385.505 555.282 381.809 549.357 377.457C546.273 375.173 543.021 373.126 539.628 371.334C535.676 369.315 531.396 368.014 526.989 367.492C518.726 366.52 510.306 369.738 505.763 376.877C501.582 383.447 501.636 392.848 507.491 398.434C513.521 404.188 522.652 404.14 529.758 400.54C536.602 397.074 540.712 389.873 543.603 383.083C550.108 367.802 555.868 352.168 561.234 336.455C566.543 320.909 571.357 305.206 575.677 289.345C576.212 287.381 576.739 285.414 577.259 283.446C578.135 280.129 576.155 276.162 572.673 275.369C570.995 274.937 569.215 275.174 567.708 276.029C566.201 276.885 565.086 278.292 564.597 279.955Z" fill="#3F3D56"/>
<path d="M630.108 278.132L627.745 361.993L625.394 445.416L624.064 492.587C624.079 494.324 624.776 495.985 626.004 497.214C627.232 498.442 628.893 499.138 630.63 499.153C632.361 499.12 634.012 498.417 635.236 497.193C636.46 495.969 637.162 494.318 637.196 492.587L639.559 408.727L641.91 325.304L643.239 278.132C643.225 276.396 642.528 274.734 641.3 273.506C640.072 272.278 638.411 271.581 636.674 271.567C634.943 271.6 633.292 272.303 632.068 273.527C630.844 274.751 630.141 276.402 630.108 278.132Z" fill="#3F3D56"/>
<path opacity="0.2" d="M402.847 469.174H404.886V376.341H452.447V374.308H404.886V335.137H441.615C441.077 334.453 440.523 333.776 439.953 333.109H404.886V307.238C404.212 306.95 403.532 306.673 402.847 306.412V333.109H362.882V299.961C362.197 299.992 361.523 300.039 360.843 300.097V333.109H328.96V308.377C328.275 308.68 327.601 308.999 326.932 309.334V333.109H300.13V335.137H326.932V374.308H300.13V376.341H326.932V469.174H328.96V376.341C333.147 376.341 337.294 377.165 341.162 378.767C345.031 380.369 348.546 382.717 351.507 385.678C354.468 388.639 356.816 392.154 358.418 396.023C360.02 399.891 360.844 404.038 360.843 408.225V469.174H362.882V376.341H402.847V469.174ZM328.96 374.308V335.137H360.843V374.308H328.96ZM362.882 374.308V335.137H363.682C368.826 335.138 373.919 336.151 378.671 338.12C383.423 340.089 387.74 342.974 391.377 346.611C395.014 350.249 397.899 354.567 399.867 359.319C401.835 364.071 402.848 369.164 402.847 374.308H362.882Z" fill="black"/>
<path d="M390.397 441.339C387.83 452.789 381.682 463.122 372.845 470.841C372.197 471.401 371.549 471.944 370.875 472.478C369.238 472.627 367.613 472.779 365.999 472.933C364.66 473.056 363.338 473.187 362.024 473.31L361.788 473.336L361.622 471.9L360.956 466.088C358.375 461.874 356.776 457.133 356.276 452.217C355.775 447.301 356.388 442.336 358.068 437.689C360.379 431.456 364.563 425.949 368.678 420.486C374.359 412.94 379.883 405.482 380.085 396.281C382.88 399.858 385.205 403.78 387.001 407.95C385.306 408.748 383.783 409.869 382.518 411.251C382.159 411.645 381.8 412.196 382.046 412.669C382.256 413.072 382.781 413.168 383.236 413.22C384.33 413.334 385.434 413.448 386.528 413.562C387.403 413.658 388.279 413.746 389.154 413.842C390.213 417.318 390.931 420.889 391.299 424.505C391.889 430.129 391.584 435.81 390.397 441.339Z" fill="#3F3D56"/>
<path d="M419.461 418.394C414.296 422.15 411.276 427.551 408.93 433.504C406.525 434.274 404.362 435.655 402.653 437.514C402.294 437.908 401.935 438.459 402.18 438.932C402.39 439.335 402.915 439.431 403.371 439.483C404.465 439.597 405.568 439.711 406.662 439.825C404.316 446.863 402.163 454.147 398.013 460.091C395.253 464.015 391.656 467.278 387.482 469.642C386.343 470.29 385.168 470.872 383.962 471.384C379.515 471.725 375.153 472.09 370.875 472.478C369.238 472.627 367.612 472.779 365.999 472.933C364.659 473.056 363.337 473.187 362.024 473.31C362.015 472.828 362.015 472.347 362.024 471.865C362.301 459.039 367.019 446.706 375.374 436.971C375.768 436.516 376.171 436.069 376.583 435.623C380.815 431.102 385.793 427.341 391.299 424.505C399.974 419.994 409.697 417.884 419.461 418.394Z" fill="#0171AF"/>
<path d="M367.513 468.443L366.507 471.419L365.999 472.933C364.659 473.056 363.337 473.187 362.024 473.31L361.788 473.336C360.335 473.485 358.89 473.634 357.446 473.783C357.069 473.345 356.693 472.898 356.325 472.443C347.188 461.378 342.801 447.146 344.125 432.856C345.449 418.567 352.375 405.383 363.39 396.185C362.234 402.234 363.583 408.029 365.797 413.781C365.561 413.877 365.333 413.973 365.115 414.078C363.42 414.876 361.897 415.997 360.632 417.379C360.273 417.773 359.915 418.324 360.16 418.797C360.37 419.2 360.895 419.296 361.35 419.348C362.445 419.462 363.548 419.576 364.642 419.69C365.517 419.786 366.393 419.874 367.268 419.97C367.68 420.014 368.091 420.057 368.503 420.101C368.564 420.233 368.616 420.355 368.678 420.486C371.173 425.897 373.86 431.333 375.375 436.971C375.754 438.385 376.053 439.82 376.268 441.269C376.942 446.165 376.505 451.15 374.989 455.854C373.474 460.558 370.919 464.861 367.513 468.443Z" fill="#0171AF"/>
<path d="M455.632 341.471C448.096 326.77 436.42 314.402 422.688 305.312C408.911 296.235 393.104 290.708 376.673 289.222C374.519 289.026 372.36 288.912 370.195 288.878C367.638 288.84 329.168 299.936 316.28 308.997C303.4 317.948 292.805 329.801 285.349 343.6C277.906 357.475 274.245 373.064 274.734 388.802C275.372 404.634 279.785 420.084 287.605 433.865C295.318 447.601 306.271 459.245 319.509 467.785C332.936 476.352 346.424 499.069 362.278 499.87C378.251 500.678 396.467 479.25 411.035 472.743C425.603 466.183 438.197 455.919 447.563 442.974C456.663 430.289 462.551 415.585 464.72 400.124C466.973 384.294 465.923 367.967 460.517 352.837C459.13 348.949 457.498 345.153 455.632 341.471C454.074 338.402 449.508 337.272 446.649 339.115C445.176 340.022 444.11 341.462 443.671 343.135C443.232 344.808 443.455 346.585 444.293 348.098C445.208 349.9 446.059 351.732 446.846 353.594L446.184 352.026C449.16 359.182 451.184 366.699 452.204 374.382L451.969 372.637C453.054 380.973 453.034 389.416 451.911 397.747L452.146 396.001C451.011 404.331 448.787 412.476 445.532 420.228L446.194 418.659C444.52 422.614 442.568 426.446 440.354 430.126C439.231 431.985 438.04 433.801 436.781 435.573C436.228 436.35 435.658 437.114 435.084 437.876C434.334 438.87 436.105 436.578 435.331 437.553C435.199 437.719 435.068 437.885 434.935 438.051C434.538 438.548 434.135 439.041 433.726 439.529C430.996 442.785 428.018 445.824 424.817 448.619C424.02 449.314 423.209 449.995 422.385 450.659C421.975 450.991 421.569 451.336 421.141 451.644C421.158 451.632 422.524 450.594 421.715 451.197C421.461 451.386 421.209 451.578 420.954 451.767C419.256 453.025 417.512 454.22 415.724 455.35C411.606 457.944 407.287 460.202 402.806 462.102L404.375 461.44C396.646 464.693 388.524 466.916 380.216 468.051L381.961 467.816C373.657 468.938 365.241 468.953 356.933 467.861L358.679 468.095C351.128 467.081 343.743 465.085 336.71 462.156L338.278 462.818C334.205 461.098 330.277 459.051 326.533 456.698C324.681 455.53 322.876 454.291 321.12 452.979C320.87 452.792 320.621 452.602 320.372 452.414C319.57 451.809 320.947 452.86 320.958 452.867C320.492 452.533 320.044 452.175 319.615 451.795C318.766 451.105 317.931 450.398 317.11 449.675C313.822 446.78 310.751 443.646 307.924 440.3C307.216 439.463 306.523 438.614 305.845 437.752C305.552 437.379 305.017 436.622 306.199 438.215C306.043 438.005 305.882 437.8 305.725 437.591C305.348 437.091 304.975 436.587 304.608 436.079C303.322 434.3 302.1 432.477 300.942 430.611C298.324 426.386 296.04 421.964 294.109 417.385L294.771 418.953C291.611 411.436 289.451 403.538 288.345 395.459L288.579 397.205C287.581 389.758 287.567 382.213 288.537 374.762L288.302 376.508C289.297 369.293 291.238 362.241 294.076 355.533L293.414 357.102C295.199 352.902 297.305 348.847 299.713 344.971C300.918 343.032 302.195 341.139 303.545 339.294C303.851 338.875 304.161 338.459 304.475 338.044C304.759 337.67 305.539 336.737 304.208 338.384C304.338 338.223 304.464 338.057 304.592 337.894C305.333 336.956 306.091 336.032 306.868 335.123C309.808 331.682 312.992 328.458 316.396 325.475C317.256 324.721 318.13 323.983 319.017 323.261C319.42 322.933 319.826 322.608 320.235 322.287C320.398 322.159 320.564 322.033 320.727 321.903C318.978 323.295 320.241 322.282 320.638 321.984C322.467 320.614 324.345 319.312 326.271 318.079C330.554 315.34 335.06 312.965 339.741 310.981L338.173 311.643C344.966 308.79 375.064 302.058 380.538 302.792L378.793 302.558C386.839 303.681 394.703 305.854 402.184 309.021L400.616 308.359C404.407 309.969 408.091 311.819 411.646 313.9C413.423 314.941 415.164 316.039 416.87 317.193C417.678 317.74 418.477 318.299 419.267 318.87C419.663 319.155 420.055 319.444 420.446 319.735C420.663 319.897 420.878 320.062 421.095 320.224C422.005 320.906 419.842 319.236 420.796 319.991C423.987 322.498 427.019 325.204 429.872 328.091C431.273 329.518 432.626 330.99 433.931 332.508C434.6 333.286 435.256 334.077 435.898 334.878C436.217 335.276 437.303 336.717 435.972 334.952C436.297 335.384 436.626 335.812 436.947 336.247C439.714 339.991 442.17 343.955 444.293 348.098C445.863 351.16 450.41 352.302 453.277 350.454C454.75 349.547 455.817 348.108 456.256 346.435C456.694 344.761 456.471 342.983 455.632 341.471Z" fill="#3F3D56"/>
<path d="M379.129 448.619C378.451 448.65 377.78 448.472 377.207 448.109C376.633 447.746 376.186 447.216 375.924 446.59C375.662 445.964 375.599 445.273 375.743 444.61C375.888 443.947 376.232 443.344 376.73 442.884C376.814 442.552 376.874 442.314 376.957 441.982C376.927 441.91 376.897 441.838 376.867 441.766C373.821 434.502 354.382 454.751 353.541 461.578C353.171 464.596 353.327 467.655 354.003 470.619C347.706 456.884 344.436 441.955 344.415 426.846C344.414 423.054 344.625 419.265 345.046 415.497C345.395 412.408 345.878 409.341 346.497 406.296C349.872 389.773 357.118 374.287 367.64 361.109C373.657 361.445 378.931 360.528 379.44 348.866C379.531 346.792 381.069 344.995 381.409 342.952C380.834 343.027 380.25 343.074 379.676 343.112C379.497 343.121 379.308 343.131 379.129 343.14L379.062 343.143C378.431 343.171 377.805 343.017 377.259 342.697C376.714 342.378 376.272 341.908 375.988 341.344C375.703 340.779 375.588 340.145 375.656 339.516C375.723 338.888 375.971 338.293 376.369 337.802C376.617 337.497 376.866 337.192 377.114 336.887C377.491 336.416 377.877 335.954 378.254 335.483C378.297 335.439 378.338 335.391 378.376 335.342C378.809 334.805 379.242 334.278 379.676 333.741C378.885 332.514 377.821 331.486 376.568 330.737C372.226 328.194 366.236 329.955 363.1 333.882C359.955 337.809 359.362 343.319 360.454 348.226C361.528 352.401 363.305 356.363 365.709 359.941C365.474 360.243 365.229 360.535 364.993 360.836C360.689 366.37 356.938 372.313 353.793 378.579C354.683 371.63 343.803 346.532 339.596 341.216C334.542 334.83 324.179 337.617 323.288 345.711C323.28 345.79 323.271 345.868 323.263 345.946C323.888 346.299 324.5 346.673 325.098 347.069C325.85 347.572 326.433 348.289 326.77 349.129C327.107 349.968 327.182 350.889 326.987 351.772C326.791 352.655 326.334 353.458 325.674 354.076C325.014 354.695 324.182 355.099 323.289 355.237L323.197 355.251C314.832 367.195 341.649 398.283 348.361 391.303C345.202 400.256 343.22 409.583 342.466 419.048C342.039 424.631 342.064 430.241 342.541 435.821L342.513 435.623C341.022 423.47 315.435 405.401 307.963 406.906C303.659 407.773 299.419 407.576 300.073 411.918C300.083 411.987 300.094 412.056 300.105 412.125C301.264 412.598 302.394 413.142 303.486 413.755C304.111 414.107 304.722 414.482 305.321 414.877C306.073 415.38 306.655 416.098 306.992 416.937C307.329 417.776 307.405 418.697 307.209 419.58C307.014 420.463 306.556 421.266 305.896 421.885C305.236 422.503 304.405 422.908 303.511 423.045L303.42 423.059C303.354 423.069 303.297 423.078 303.231 423.088C299.423 436.19 327.662 457.335 344.83 450.607H344.839C346.541 458 349.006 465.196 352.195 472.079H378.47C378.564 471.787 378.649 471.486 378.734 471.194C376.302 471.347 373.86 471.201 371.463 470.761C373.413 468.369 375.362 465.958 377.312 463.566C377.355 463.521 377.396 463.474 377.434 463.424C378.423 462.2 379.421 460.985 380.41 459.761L380.411 459.759C380.463 456.006 380.033 452.262 379.129 448.619L379.129 448.619ZM349.039 389.429L349.053 389.41L349.039 389.447V389.429ZM343.219 441.895L342.993 441.387C343.003 441.019 343.003 440.652 342.993 440.275C342.993 440.172 342.974 440.068 342.974 439.965C343.059 440.614 343.135 441.264 343.229 441.914L343.219 441.895Z" fill="#3F3D56"/>
<path d="M83.8914 393.943C89.2098 393.943 93.5212 389.632 93.5212 384.314C93.5212 378.995 89.2098 374.684 83.8914 374.684C78.5731 374.684 74.2617 378.995 74.2617 384.314C74.2617 389.632 78.5731 393.943 83.8914 393.943Z" fill="#3F3D56"/>
<path d="M199.448 498.995C204.766 498.995 209.078 494.684 209.078 489.365C209.078 484.047 204.766 479.736 199.448 479.736C194.13 479.736 189.818 484.047 189.818 489.365C189.818 494.684 194.13 498.995 199.448 498.995Z" fill="#3F3D56"/>
<path d="M638.039 498.995C643.357 498.995 647.669 494.684 647.669 489.365C647.669 484.047 643.357 479.736 638.039 479.736C632.721 479.736 628.409 484.047 628.409 489.365C628.409 494.684 632.721 498.995 638.039 498.995Z" fill="#3F3D56"/>
<path d="M661.675 376.435C666.993 376.435 671.304 372.123 671.304 366.805C671.304 361.487 666.993 357.175 661.675 357.175C656.356 357.175 652.045 361.487 652.045 366.805C652.045 372.123 656.356 376.435 661.675 376.435Z" fill="#3F3D56"/>
<path d="M633.661 287.141C638.979 287.141 643.291 282.83 643.291 277.511C643.291 272.193 638.979 267.882 633.661 267.882C628.343 267.882 624.031 272.193 624.031 277.511C624.031 282.83 628.343 287.141 633.661 287.141Z" fill="#3F3D56"/>
<path d="M231.839 366.805C231.833 369.265 230.882 371.628 229.182 373.406C227.482 375.184 225.164 376.241 222.707 376.357C220.25 376.473 217.842 375.64 215.982 374.031C214.122 372.421 212.952 370.158 212.714 367.71C212.476 365.262 213.188 362.816 214.703 360.878C216.219 358.94 218.421 357.659 220.854 357.3C223.288 356.941 225.766 357.531 227.777 358.948C229.787 360.366 231.176 362.502 231.655 364.914C231.779 365.537 231.84 366.17 231.839 366.805Z" fill="#3F3D56"/>
<path d="M424.433 315.155C429.752 315.155 434.063 310.843 434.063 305.525C434.063 300.207 429.752 295.895 424.433 295.895C419.115 295.895 414.804 300.207 414.804 305.525C414.804 310.843 419.115 315.155 424.433 315.155Z" fill="#3F3D56"/>
<path d="M329.012 305.525C329.006 307.985 328.055 310.348 326.355 312.126C324.655 313.904 322.337 314.961 319.88 315.077C317.423 315.193 315.015 314.36 313.155 312.751C311.295 311.141 310.125 308.878 309.887 306.43C309.649 303.982 310.361 301.536 311.876 299.598C313.392 297.66 315.594 296.379 318.027 296.02C320.461 295.661 322.939 296.251 324.95 297.668C326.96 299.086 328.349 301.221 328.828 303.634C328.952 304.257 329.013 304.89 329.012 305.525Z" fill="#3F3D56"/>
<path d="M204.7 277.511C204.695 279.971 203.743 282.334 202.044 284.112C200.344 285.89 198.025 286.947 195.568 287.063C193.111 287.179 190.704 286.347 188.844 284.737C186.983 283.128 185.813 280.865 185.575 278.416C185.337 275.968 186.05 273.522 187.565 271.584C189.08 269.647 191.282 268.366 193.716 268.006C196.149 267.647 198.628 268.237 200.638 269.655C202.648 271.072 204.037 273.208 204.517 275.62C204.64 276.243 204.702 276.876 204.7 277.511Z" fill="#3F3D56"/>
<path d="M525.108 397.445C530.427 397.445 534.738 393.134 534.738 387.815C534.738 382.497 530.427 378.186 525.108 378.186C519.79 378.186 515.479 382.497 515.479 387.815C515.479 393.134 519.79 397.445 525.108 397.445Z" fill="#3F3D56"/>
<path d="M373.658 309.902C381.394 309.902 387.665 303.631 387.665 295.895C387.665 288.159 381.394 281.888 373.658 281.888C365.922 281.888 359.651 288.159 359.651 295.895C359.651 303.631 365.922 309.902 373.658 309.902Z" fill="#3F3D56"/>
<path d="M752.45 499.731L1.55016 500C1.41328 500 1.27773 499.973 1.15127 499.921C1.0248 499.868 0.909901 499.791 0.81311 499.695C0.716318 499.598 0.639529 499.483 0.587146 499.357C0.534762 499.23 0.507812 499.094 0.507812 498.958C0.507812 498.821 0.534762 498.685 0.587146 498.559C0.639529 498.432 0.716318 498.317 0.81311 498.221C0.909901 498.124 1.0248 498.047 1.15127 497.995C1.27773 497.942 1.41328 497.915 1.55016 497.915L752.45 497.646C752.726 497.647 752.99 497.757 753.185 497.953C753.38 498.148 753.489 498.413 753.489 498.689C753.489 498.964 753.38 499.229 753.185 499.425C752.99 499.62 752.726 499.73 752.45 499.731Z" fill="#CACACA"/>
</g>
<defs>
<clipPath id="clip0_326_156">
<rect width="752.985" height="500" fill="white" transform="translate(0.507812)"/>
</clipPath>
</defs>
</svg>
